<svg width="53" height="54" viewBox="0 0 53 54" fill="none" xmlns="http://www.w3.org/2000/svg">
<path d="M35.8552 19.0635C33.0471 19.0635 30.3945 19.7549 28.0527 20.9795V14.291C28.0527 6.41092 21.7605 0 14.0264 0C6.2922 0 0 6.41092 0 14.291V39.6299C0 47.51 6.2922 53.9209 14.0264 53.9209C18.0603 53.9209 21.7013 52.1762 24.2625 49.3893C27.3168 52.2504 31.389 54 35.8552 54C45.3089 54 53 46.1638 53 36.5317C53 26.8997 45.3089 19.0635 35.8552 19.0635ZM35.8552 50.8359C28.6387 50.8359 22.6775 45.2594 21.9023 38.1138H49.8083C49.033 45.2594 43.0717 50.8359 35.8552 50.8359ZM21.9023 34.9497C22.6775 27.8041 28.6387 22.2275 35.8552 22.2275C43.0717 22.2275 49.033 27.8041 49.8082 34.9497H21.9023ZM14.0264 3.16406C20.0482 3.16406 24.9473 8.15558 24.9473 14.291V23.0648C24.1195 23.762 23.3573 24.5371 22.6704 25.3784H3.10547V14.291C3.10547 8.15558 8.00455 3.16406 14.0264 3.16406ZM14.0264 50.7568C8.00455 50.7568 3.10547 45.7653 3.10547 39.6299V28.5425H20.6115C19.3971 30.9381 18.7104 33.6547 18.7104 36.5317C18.7104 40.4725 19.9985 44.1122 22.1672 47.0381C20.166 49.3187 17.2581 50.7568 14.0264 50.7568Z" fill="white"/>
</svg>
