<svg width="75" height="64" viewBox="0 0 75 64" fill="none" xmlns="http://www.w3.org/2000/svg">
<path d="M43.3594 43L65.0218 52.2426C66.2926 52.7849 67.3904 53.5819 68.2212 54.5655C69.052 55.5491 69.591 56.6899 69.7919 57.8901L70.3125 61H4.6875L5.20811 57.8901C5.40905 56.6899 5.948 55.5491 6.77878 54.5655C7.60955 53.5819 8.70739 52.7849 9.97822 52.2426L31.6406 43H43.3594Z" fill="#EAEAE8"/>
<path d="M30.4688 46H44.5312V61H30.4688V46Z" fill="#B0D2FD"/>
<path d="M31.6406 39V43L30.4688 46H37.5H44.5312L43.3594 43V39H31.6406Z" fill="#FDC9A6"/>
<path d="M52.7344 25V15.7906C52.7343 14.0038 51.9025 12.2902 50.422 11.0267L48.0155 8.97325C46.5349 7.70983 44.5268 7.00004 42.4329 7H34.6939C33.3942 7.00005 32.1146 7.27389 30.9687 7.79723C29.8228 8.32056 28.846 9.07721 28.125 10L26.7387 10.3944C25.3586 10.7869 24.1712 11.5608 23.3643 12.5936C22.6479 13.5107 22.2656 14.5881 22.2656 15.6903V25H52.7344Z" fill="#55300B"/>
<path d="M43.3594 39V41.455C43.3477 41.4625 43.3345 41.4687 43.3228 41.4762C41.5977 42.4729 39.5612 43.0039 37.4779 43.0001C35.3945 42.9963 33.3607 42.458 31.6406 41.455V39H43.3594Z" fill="#E6AF89"/>
<path d="M37.5 41C35.4244 41 33.3964 40.4692 31.6777 39.4763C29.9589 38.4833 28.6283 37.0736 27.8574 35.4291C26.4859 32.5032 25.7812 29.3809 25.7813 26.2296V19L29.2969 13.9088L30.046 14.4319C33.3507 16.7394 37.4892 18 41.7592 18H49.2188V26.2296C49.2189 29.3811 48.5142 32.5036 47.1426 35.4296C46.3716 37.074 45.0409 38.4836 43.3222 39.4765C41.6035 40.4693 39.5755 41 37.5 41Z" fill="#FDC9A6"/>
<path d="M44.5312 23C44.4052 22.9999 44.28 22.9825 44.1605 22.9484L40.6448 21.9484C40.4974 21.9078 40.3609 21.8427 40.2432 21.7569C40.1255 21.671 40.0289 21.5661 39.9589 21.4482C39.889 21.3303 39.8471 21.2017 39.8358 21.0699C39.8244 20.9381 39.8438 20.8057 39.8928 20.6804C39.9418 20.555 40.0194 20.4392 40.1211 20.3396C40.2229 20.2399 40.3468 20.1585 40.4856 20.1C40.6245 20.0415 40.7756 20.0071 40.9301 19.9987C41.0847 19.9903 41.2396 20.0081 41.386 20.0511L44.9017 21.0511C45.1658 21.1261 45.39 21.2789 45.5342 21.4821C45.6784 21.6853 45.7331 21.9256 45.6885 22.1601C45.644 22.3946 45.503 22.6079 45.291 22.7618C45.0789 22.9157 44.8096 23.0001 44.5312 23Z" fill="#55300B"/>
<path d="M42.4805 26.5C43.2895 26.5 43.9453 25.9404 43.9453 25.25C43.9453 24.5596 43.2895 24 42.4805 24C41.6715 24 41.0156 24.5596 41.0156 25.25C41.0156 25.9404 41.6715 26.5 42.4805 26.5Z" fill="#55300B"/>
<path d="M30.4687 23C30.1903 23.0001 29.921 22.9157 29.7089 22.7618C29.4969 22.6079 29.356 22.3946 29.3114 22.1601C29.2668 21.9256 29.3215 21.6853 29.4657 21.4821C29.6099 21.2789 29.8341 21.1261 30.0982 21.0511L33.6139 20.0511C33.7603 20.0081 33.9153 19.9903 34.0698 19.9987C34.2244 20.0071 34.3754 20.0415 34.5143 20.1C34.6531 20.1585 34.777 20.2399 34.8788 20.3396C34.9805 20.4392 35.0581 20.555 35.1071 20.6804C35.1561 20.8057 35.1755 20.9381 35.1641 21.0699C35.1528 21.2017 35.1109 21.3303 35.041 21.4482C34.9711 21.5661 34.8744 21.671 34.7567 21.7569C34.639 21.8427 34.5025 21.9078 34.3551 21.9484L30.8395 22.9484C30.7199 22.9825 30.5947 22.9999 30.4687 23Z" fill="#55300B"/>
<path d="M32.5195 26.5C33.3285 26.5 33.9844 25.9404 33.9844 25.25C33.9844 24.5596 33.3285 24 32.5195 24C31.7105 24 31.0547 24.5596 31.0547 25.25C31.0547 25.9404 31.7105 26.5 32.5195 26.5Z" fill="#55300B"/>
<path d="M36.0514 35H35.1562C34.8454 35 34.5474 34.8947 34.3276 34.7071C34.1078 34.5196 33.9844 34.2652 33.9844 34C33.9844 33.7348 34.1078 33.4804 34.3276 33.2929C34.5474 33.1054 34.8454 33 35.1562 33H36.0514C37.5925 32.9985 39.1123 32.6924 40.4915 32.1056C40.6293 32.0457 40.7796 32.0096 40.9338 31.9995C41.088 31.9893 41.2431 32.0054 41.39 32.0466C41.5369 32.0878 41.6728 32.1535 41.7898 32.2398C41.9069 32.326 42.0027 32.4312 42.0719 32.5493C42.1411 32.6673 42.1822 32.7959 42.1929 32.9275C42.2035 33.0592 42.1836 33.1913 42.1341 33.3164C42.0846 33.4414 42.0066 33.5569 41.9046 33.6561C41.8026 33.7553 41.6786 33.8363 41.5397 33.8944C39.8349 34.6196 37.9564 34.998 36.0514 35Z" fill="#E6AF89"/>
<path d="M38.6719 31H36.3281C36.0173 31 35.7193 30.8946 35.4995 30.7071C35.2797 30.5196 35.1562 30.2652 35.1562 30V27C35.1562 26.7348 35.2797 26.4804 35.4995 26.2929C35.7193 26.1054 36.0173 26 36.3281 26C36.6389 26 36.937 26.1054 37.1568 26.2929C37.3765 26.4804 37.5 26.7348 37.5 27V29H38.6719C38.9827 29 39.2807 29.1054 39.5005 29.2929C39.7203 29.4804 39.8438 29.7348 39.8438 30C39.8438 30.2652 39.7203 30.5196 39.5005 30.7071C39.2807 30.8946 38.9827 31 38.6719 31Z" fill="#E6AF89"/>
<path d="M25.7812 22H24.1617C23.348 22 22.5677 22.2758 21.9923 22.7668C21.417 23.2578 21.0938 23.9237 21.0938 24.618V26.382C21.0938 26.7884 21.2046 27.1892 21.4176 27.5527C21.6724 27.9876 22.0641 28.3534 22.5488 28.609C23.0334 28.8646 23.592 29 24.1617 29H26.9531L25.7812 22Z" fill="#FDC9A6"/>
<path d="M49.2188 22H50.8383C51.652 22 52.4323 22.2758 53.0077 22.7668C53.583 23.2578 53.9062 23.9237 53.9062 24.618V26.382C53.9062 26.7884 53.7954 27.1892 53.5824 27.5527C53.3276 27.9876 52.9359 28.3534 52.4512 28.609C51.9666 28.8646 51.408 29 50.8383 29H48.0469L49.2188 22Z" fill="#FDC9A6"/>
<path d="M10.5469 61V57C10.5469 56.7348 10.6703 56.4804 10.8901 56.2929C11.1099 56.1054 11.4079 56 11.7188 56C12.0296 56 12.3276 56.1054 12.5474 56.2929C12.7672 56.4804 12.8906 56.7348 12.8906 57V61H10.5469Z" fill="#CBCBCB"/>
<path d="M62.1094 61V57C62.1094 56.7348 62.2328 56.4804 62.4526 56.2929C62.6724 56.1054 62.9704 56 63.2812 56C63.5921 56 63.8901 56.1054 64.1099 56.2929C64.3297 56.4804 64.4531 56.7348 64.4531 57V61H62.1094Z" fill="#CBCBCB"/>
<path d="M32.8125 49L35.1562 53H39.8438L42.1875 49L37.5 46L32.8125 49Z" fill="#0296E5"/>
<path d="M35.1562 53L33.9844 61H41.0156L39.8438 53H35.1562Z" fill="#0296E5"/>
<path d="M40.1367 55H34.8633L35.1562 53H39.8438L40.1367 55Z" fill="#0296E5"/>
<path d="M37.5 46L29.2969 51L26.9531 45L30.4688 42L37.5 46Z" fill="#B0D2FD"/>
<path d="M37.5 46L45.7031 51L48.0469 45L44.5312 42L37.5 46Z" fill="#B0D2FD"/>
<path d="M40.1367 55H34.8633L35.1562 53H39.8438L40.1367 55Z" fill="#026CA2"/>
</svg>
