<svg width="50" height="51" viewBox="0 0 50 51" fill="none" xmlns="http://www.w3.org/2000/svg">
<g clip-path="url(#clip0)">
<path d="M48.7499 22.083C48.7484 22.0818 48.7473 22.0802 48.7461 22.0791L28.35 1.27585C27.4807 0.388703 26.3248 -0.099617 25.0953 -0.099617C23.8659 -0.099617 22.71 0.388703 21.8403 1.27585L1.45486 22.0686C1.44799 22.0756 1.44074 22.083 1.43426 22.09C-0.351024 23.9215 -0.347972 26.893 1.44303 28.7198C2.26129 29.5549 3.34161 30.0381 4.49708 30.0891C4.54439 30.0938 4.59169 30.0961 4.63937 30.0961H5.4519V45.4056C5.4519 48.4355 7.8689 50.9005 10.8394 50.9005H18.819C19.6281 50.9005 20.2839 50.2312 20.2839 49.4063V37.4034C20.2839 36.0209 21.3867 34.8964 22.7421 34.8964H27.4486C28.804 34.8964 29.9064 36.0209 29.9064 37.4034V49.4063C29.9064 50.2312 30.5622 50.9005 31.3713 50.9005H39.3509C42.3218 50.9005 44.7384 48.4355 44.7384 45.4056V30.0961H45.4922C46.7213 30.0961 47.8771 29.6078 48.7473 28.7202C50.5402 26.8907 50.541 23.9137 48.7499 22.083ZM46.6755 26.6074C46.3593 26.93 45.9389 27.1078 45.4922 27.1078H43.2736C42.4645 27.1078 41.8087 27.7767 41.8087 28.6019V45.4056C41.8087 46.7877 40.7063 47.9122 39.3509 47.9122H32.8361V37.4034C32.8361 34.3735 30.4195 31.9081 27.4486 31.9081H22.7421C19.7712 31.9081 17.3542 34.3735 17.3542 37.4034V47.9122H10.8394C9.48443 47.9122 8.3816 46.7877 8.3816 45.4056V28.6019C8.3816 27.7767 7.72585 27.1078 6.91675 27.1078H4.73627C4.71338 27.1062 4.69087 27.1051 4.6676 27.1047C4.2312 27.0969 3.82188 26.9203 3.51518 26.607C2.86286 25.9417 2.86286 24.8588 3.51518 24.1931C3.51556 24.1931 3.51556 24.1927 3.51594 24.1923L3.51709 24.1911L23.9124 3.38866C24.2283 3.0661 24.6483 2.88867 25.0953 2.88867C25.542 2.88867 25.962 3.0661 26.2783 3.38866L46.669 24.1868C46.6721 24.1899 46.6755 24.1931 46.6786 24.1962C47.3274 24.8627 47.3263 25.9432 46.6755 26.6074Z" fill="white"/>
</g>
<defs>
<clipPath id="clip0">
<rect width="50" height="51" fill="white"/>
</clipPath>
</defs>
</svg>
