<svg width="50" height="51" viewBox="0 0 50 51" fill="none" xmlns="http://www.w3.org/2000/svg">
<g clip-path="url(#clip0)">
<rect width="50" height="51" fill="#5CA2FA"/>
<path d="M31.2497 27.6246C30.0976 27.6246 29.1665 28.5767 29.1665 29.7494V38.2496C29.1665 39.4204 28.233 40.3745 27.0829 40.3745H20.833V8.49979C20.833 6.68505 19.6997 5.06369 17.9956 4.4602L17.3788 4.2497H27.0829C28.233 4.2497 29.1665 5.20376 29.1665 6.37494V12.7499C29.1665 13.9226 30.0976 14.8747 31.2497 14.8747C32.4017 14.8747 33.3329 13.9226 33.3329 12.7499V6.37494C33.3329 2.86024 30.5287 0 27.0829 0H4.68745C4.60811 0 4.54173 0.0361859 4.46467 0.0466914C4.36435 0.0381314 4.2686 0 4.16675 0C1.8688 0 0 1.90579 0 4.2497V42.4993C0 44.3141 1.13333 45.9354 2.83734 46.5389L15.375 50.8018C15.7999 50.9357 16.2226 50.9995 16.6666 50.9995C18.9646 50.9995 20.833 49.0933 20.833 46.7494V44.6246H27.0829C30.5287 44.6246 33.3329 41.7643 33.3329 38.2496V29.7494C33.3329 28.5767 32.4017 27.6246 31.2497 27.6246Z" fill="white"/>
<path d="M49.3891 19.748L41.0556 11.2482C40.4601 10.6405 39.5641 10.4576 38.7851 10.7868C38.0081 11.1163 37.4996 11.8918 37.4996 12.7505V19.1254H29.1665C28.0163 19.1254 27.0829 20.0772 27.0829 21.2503C27.0829 22.4234 28.0163 23.3751 29.1665 23.3751H37.4996V29.7501C37.4996 30.6088 38.0081 31.3843 38.7851 31.7138C39.5641 32.043 40.4601 31.8601 41.0556 31.2528L49.3891 22.7526C50.2035 21.9219 50.2035 20.5787 49.3891 19.748Z" fill="white"/>
</g>
<defs>
<clipPath id="clip0">
<rect width="50" height="51" fill="white"/>
</clipPath>
</defs>
</svg>
