<svg width="54" height="51" viewBox="0 0 54 51" fill="none" xmlns="http://www.w3.org/2000/svg">
<g clip-path="url(#clip0)">
<path d="M27.2362 44.1275C28.1557 44.1275 28.9011 43.4236 28.9011 42.5552C28.9011 41.6868 28.1557 40.9828 27.2362 40.9828C26.3168 40.9828 25.5714 41.6868 25.5714 42.5552C25.5714 43.4236 26.3168 44.1275 27.2362 44.1275Z" fill="#7FDBD5"/>
<path d="M34.2099 45.8553C35.0848 45.8553 35.794 45.1854 35.794 44.3591C35.794 43.5328 35.0848 42.863 34.2099 42.863C33.335 42.863 32.6257 43.5328 32.6257 44.3591C32.6257 45.1854 33.335 45.8553 34.2099 45.8553Z" fill="#38648C"/>
<path d="M29.2983 37.1952C30.1731 37.1952 30.8824 36.5254 30.8824 35.6991C30.8824 34.8728 30.1731 34.2029 29.2983 34.2029C28.4234 34.2029 27.7141 34.8728 27.7141 35.6991C27.7141 36.5254 28.4234 37.1952 29.2983 37.1952Z" fill="#38648C"/>
<path d="M35.4091 40.3757C36.5118 40.3757 37.4057 39.5315 37.4057 38.4901C37.4057 37.4487 36.5118 36.6045 35.4091 36.6045C34.3065 36.6045 33.4126 37.4487 33.4126 38.4901C33.4126 39.5315 34.3065 40.3757 35.4091 40.3757Z" fill="#7FDBD5"/>
<path d="M29.2982 51C30.4795 51 31.437 50.0956 31.437 48.98C31.437 47.8644 30.4795 46.96 29.2982 46.96C28.117 46.96 27.1594 47.8644 27.1594 48.98C27.1594 50.0956 28.117 51 29.2982 51Z" fill="#F28B74"/>
<path d="M20.4884 8.3723L13.2424 14.4664L22.422 24.2019L29.668 18.1077C32.5145 15.7137 32.7671 11.5936 30.2322 8.90521C27.6974 6.21685 23.3349 5.97828 20.4884 8.3723Z" fill="#7FDBD5"/>
<path d="M5.9966 20.5606L13.2425 14.4665L22.4221 24.202L15.1762 30.2961C12.3297 32.6901 7.96729 32.4515 5.43234 29.7632C2.8974 27.0748 3.1501 22.9547 5.9966 20.5606Z" fill="#287D99"/>
<path opacity="0.1" d="M30.2322 8.90521C28.796 7.38208 26.7732 6.64617 24.7718 6.72904C24.2057 8.47161 24.4105 10.4271 25.5127 12.0948L27.7978 15.5519C28.1917 16.1477 28.0624 16.9278 27.4916 17.3782C23.2161 20.7523 17.7478 24.3934 14.8878 25.5001C10.514 27.1924 6.69265 22.9106 7.30954 19.4564L6.07334 20.496C3.24076 22.8783 2.88617 26.9922 5.37176 29.6981C7.89722 32.4475 12.3068 32.7092 15.1761 30.2961L29.6679 18.1077C32.5144 15.7137 32.767 11.5936 30.2322 8.90521Z" fill="black"/>
<path d="M27.2824 9.97062L32.4206 17.7437L44.1292 10.8403L38.9911 3.06718C36.9726 0.0135507 32.7152 -0.916503 29.482 0.989824C26.2488 2.89615 25.264 6.91699 27.2824 9.97062Z" fill="#76B7EB"/>
<path d="M37.5587 25.517L32.4205 17.7439L44.1292 10.8404L49.2673 18.6136C51.2858 21.6672 50.301 25.688 47.0678 27.5943C43.8345 29.5007 39.5771 28.5706 37.5587 25.517Z" fill="#D1EFF2"/>
<path opacity="0.1" d="M47.0678 27.5943C47.3785 27.4111 47.6679 27.208 47.9364 26.9886C39.7318 25.8499 29.036 7.35217 29.518 0.969788C29.5061 0.976661 29.4939 0.982836 29.482 0.989809C26.2488 2.89614 25.264 6.91698 27.2825 9.97061L37.5586 25.517C39.5772 28.5706 43.8345 29.5007 47.0678 27.5943Z" fill="black"/>
<path d="M17.7286 35.4836L26.1315 38.7708C26.4413 38.892 26.7967 38.7531 26.925 38.4603L31.7423 27.4765C31.8707 27.1837 31.7235 26.8482 31.4136 26.727L23.0107 23.4398C19.4893 22.0622 15.4522 23.6415 13.9936 26.9674C12.5349 30.2932 14.2073 34.106 17.7286 35.4836Z" fill="#F28B74"/>
<path opacity="0.1" d="M26.925 38.4604L28.1114 35.7553C18.1869 33.9714 14.8546 28.432 15.6313 24.7232C14.9442 25.3353 14.3784 26.0898 13.9936 26.9674C12.535 30.2931 14.2072 34.106 17.7287 35.4836L26.1315 38.7708C26.4413 38.8921 26.7966 38.7531 26.925 38.4604Z" fill="black"/>
<path d="M45.8611 35.4836L37.4583 38.7708C37.1484 38.892 36.7931 38.7531 36.6647 38.4603L31.8474 27.4765C31.7191 27.1837 31.8662 26.8482 32.1762 26.727L40.579 23.4398C44.1004 22.0622 48.1375 23.6415 49.5962 26.9674C51.0547 30.2932 49.3825 34.106 45.8611 35.4836Z" fill="#76B7EB"/>
</g>
<defs>
<clipPath id="clip0">
<rect width="54" height="51" fill="white"/>
</clipPath>
</defs>
</svg>
