<svg id="Capa_1" enable-background="new 0 0 512 512" height="512" viewBox="0 0 512 512" width="512" xmlns="http://www.w3.org/2000/svg"><g><g><path d="m282.591 0h-84.028l-32.271 192.45c-31.268 6.526-54.758 34.239-54.758 67.444 0 38.055 30.849 68.904 68.904 68.904 10.152 0 19.781-2.213 28.458-6.155 12.619 14.132 30.968 23.037 51.405 23.037z" fill="#ffddce"/></g><g><path d="m354.311 192.45-32.271-192.45h-62.287l.548 345.68c20.436 0 38.786-8.905 51.404-23.037 8.677 3.942 18.307 6.155 28.458 6.155 38.055 0 68.904-30.849 68.904-68.904.002-33.205-23.488-60.918-54.756-67.444z" fill="#f2cdbe"/></g><g><g><g><path d="m62.656 0h30v39.944h-30z" fill="#86ec88"/></g><g><path d="m19.189 25.096h30v39.944h-30z" fill="#86ec88" transform="matrix(.5 -.866 .866 .5 -21.936 52.142)"/></g><g><path d="m14.216 80.261h39.944v30h-39.944z" fill="#86ec88" transform="matrix(.866 -.5 .5 .866 -43.05 29.857)"/></g><g><path d="m62.656 100.384h30v39.944h-30z" fill="#86ec88"/></g><g><path d="m106.124 75.288h30v39.944h-30z" fill="#86ec88" transform="matrix(.5 -.866 .866 .5 -21.936 152.527)"/></g><g><path d="m101.152 30.068h39.944v30h-39.944z" fill="#86ec88" transform="matrix(.866 -.5 .5 .866 -6.306 66.601)"/></g></g><g><path d="m77.656 115.384c-24.935 0-45.22-20.286-45.22-45.22 0-24.935 20.286-45.22 45.22-45.22s45.22 20.286 45.22 45.22c0 24.935-20.286 45.22-45.22 45.22z" fill="#72ca76"/></g></g><g><path d="m32.436 236.428h30v30h-30z" fill="#fdae02"/></g><g><path d="m209.144 390.005h30v30h-30z" fill="#ffdf8e"/></g><g><path d="m281.459 446.808h30v30h-30z" fill="#fdc673"/></g><g><path d="m472.485 153.198h30v30h-30z" fill="#fdc673"/></g><g><path d="m400.333 49.162h30v30h-30z" fill="#ffdf8e"/></g><g><path d="m442.485 274.458h30v30h-30z" fill="#fdae02"/></g><g><g><g><path d="m62.656 341.451h30v39.944h-30z" fill="#86ec88"/></g><g><path d="m19.189 366.547h30v39.944h-30z" fill="#86ec88" transform="matrix(.5 -.866 .866 .5 -317.641 222.868)"/></g><g><path d="m14.216 421.712h39.944v30h-39.944z" fill="#86ec88" transform="matrix(.866 -.5 .5 .866 -213.777 75.604)"/></g><g><path d="m62.656 441.836h30v39.944h-30z" fill="#86ec88"/></g><g><path d="m106.124 416.74h30v39.944h-30z" fill="#86ec88" transform="matrix(.5 -.866 .866 .5 -317.642 323.252)"/></g><g><path d="m101.152 371.52h39.944v30h-39.944z" fill="#86ec88" transform="matrix(.866 -.5 .5 .866 -177.034 112.347)"/></g></g><g><path d="m77.656 456.836c-24.935 0-45.22-20.286-45.22-45.22 0-24.935 20.286-45.22 45.22-45.22s45.22 20.286 45.22 45.22-20.286 45.22-45.22 45.22z" fill="#72ca76"/></g></g><g><g><g><path d="m419.344 371.671h30v39.944h-30z" fill="#72ca76"/></g><g><path d="m375.876 396.767h30v39.944h-30z" fill="#72ca76" transform="matrix(.5 -.866 .866 .5 -165.469 546.878)"/></g><g><path d="m370.904 451.932h39.944v30h-39.944z" fill="#72ca76" transform="matrix(.866 -.5 .5 .866 -181.1 257.998)"/></g><g><path d="m419.344 472.056h30v39.944h-30z" fill="#72ca76"/></g><g><path d="m462.812 446.96h30v39.944h-30z" fill="#72ca76" transform="matrix(.5 -.866 .866 .5 -165.469 647.263)"/></g><g><path d="m457.839 401.74h39.944v30h-39.944z" fill="#72ca76" transform="matrix(.866 -.5 .5 .866 -144.356 294.741)"/></g></g><g><path d="m434.344 487.056c-24.935 0-45.22-20.286-45.22-45.22 0-24.935 20.286-45.22 45.22-45.22s45.22 20.286 45.22 45.22c-.001 24.934-20.286 45.22-45.22 45.22z" fill="#559759"/></g></g></g></svg>