<svg width="75" height="74" viewBox="0 0 75 74" fill="none" xmlns="http://www.w3.org/2000/svg">
<g clip-path="url(#clip0)">
<path d="M37.9499 74C58.4121 74 74.9999 57.4345 74.9999 37C74.9999 16.5655 58.4121 0 37.9499 0C17.4878 0 0.899902 16.5655 0.899902 37C0.899902 57.4345 17.4878 74 37.9499 74Z" fill="#FFE377"/>
<path d="M44.2763 73.4605C60.6995 70.6385 73.4234 57.0212 74.8617 40.1865L65.8033 31.1403L63.9395 33.0015L57.2149 26.286L56.1717 27.3278V33.334L37.3697 14.5573L34.9025 17.0126L30.6537 12.7695L28.2131 18.8509L23.9261 14.5696L21.1234 17.3685L24.663 20.9033L22.5409 23.0225L19.0012 19.488L16.1985 22.2869L20.4856 26.5682L14.3962 29.0052L18.617 33.2204L16.1499 35.6757L35.9951 55.4942L29.2526 55.9433L33.0584 59.744L31.7999 61.0009L44.2763 73.4605Z" fill="#EDBE00"/>
<path d="M28.0992 14.1687H30.4058V41.0433H28.0992V14.1687Z" fill="#2681FF"/>
<path d="M21.5255 16.5446L23.5229 15.3929L30.2112 26.9613L28.2138 28.113L21.5255 16.5446Z" fill="#2681FF"/>
<path d="M28.2135 28.1129L30.2109 26.9612L36.978 38.666L34.9806 39.8177L28.2135 28.1129Z" fill="#005FE0"/>
<path d="M17.0227 21.8854L18.176 19.8906L29.76 26.5699L28.6067 28.5646L17.0227 21.8854Z" fill="#2681FF"/>
<path d="M28.6068 28.5648L29.7601 26.5701L41.4807 33.3281L40.3275 35.3228L28.6068 28.5648Z" fill="#005FE0"/>
<path d="M15.7971 26.4543H29.1736V28.7577H15.7971V26.4543Z" fill="#2681FF"/>
<path d="M29.1736 26.4543H42.7078V28.7577H29.1736V26.4543Z" fill="#005FE0"/>
<path d="M21.5251 38.6677L28.2134 27.0993L30.2108 28.251L23.5226 39.8194L21.5251 38.6677Z" fill="#2681FF"/>
<path d="M28.2137 27.099L34.9809 15.3941L36.9783 16.5458L30.2112 28.2507L28.2137 27.099Z" fill="#005FE0"/>
<path d="M17.0227 33.3265L28.6068 26.6473L29.76 28.642L18.176 35.3212L17.0227 33.3265Z" fill="#2681FF"/>
<path d="M28.6069 26.6472L40.3276 19.8893L41.4809 21.884L29.7602 28.642L28.6069 26.6472Z" fill="#005FE0"/>
<path d="M29.2526 14.1687H30.4057V41.0433H29.2526V14.1687Z" fill="#005FE0"/>
<path d="M35.9802 41.2218C37.0746 41.2218 37.9617 40.3358 37.9617 39.243C37.9617 38.1502 37.0746 37.2642 35.9802 37.2642C34.8859 37.2642 33.9988 38.1502 33.9988 39.243C33.9988 40.3358 34.8859 41.2218 35.9802 41.2218Z" fill="#00BAA0"/>
<path d="M38.6044 27.6059L29.2526 36.9451C24.0877 36.9451 19.9008 32.7638 19.9008 27.6059C19.9008 22.448 24.0877 18.2668 29.2526 18.2668L38.6044 27.6059Z" fill="#2681FF"/>
<path d="M29.2526 16.1475C30.3469 16.1475 31.234 15.2615 31.234 14.1687C31.234 13.0758 30.3469 12.1899 29.2526 12.1899C28.1582 12.1899 27.2711 13.0758 27.2711 14.1687C27.2711 15.2615 28.1582 16.1475 29.2526 16.1475Z" fill="#00DDC1"/>
<path d="M29.2526 43.022C30.3469 43.022 31.234 42.1361 31.234 41.0433C31.234 39.9504 30.3469 39.0645 29.2526 39.0645C28.1582 39.0645 27.2711 39.9504 27.2711 41.0433C27.2711 42.1361 28.1582 43.022 29.2526 43.022Z" fill="#00DDC1"/>
<path d="M15.797 29.5847C16.8913 29.5847 17.7785 28.6987 17.7785 27.6059C17.7785 26.513 16.8913 25.6271 15.797 25.6271C14.7027 25.6271 13.8156 26.513 13.8156 27.6059C13.8156 28.6987 14.7027 29.5847 15.797 29.5847Z" fill="#00DDC1"/>
<path d="M42.7079 29.5847C43.8022 29.5847 44.6893 28.6987 44.6893 27.6059C44.6893 26.513 43.8022 25.6271 42.7079 25.6271C41.6136 25.6271 40.7264 26.513 40.7264 27.6059C40.7264 28.6987 41.6136 29.5847 42.7079 29.5847Z" fill="#00BAA0"/>
<path d="M40.9052 22.8661C41.9995 22.8661 42.8866 21.9802 42.8866 20.8873C42.8866 19.7945 41.9995 18.9086 40.9052 18.9086C39.8108 18.9086 38.9237 19.7945 38.9237 20.8873C38.9237 21.9802 39.8108 22.8661 40.9052 22.8661Z" fill="#00BAA0"/>
<path d="M17.5997 36.3033C18.6941 36.3033 19.5812 35.4174 19.5812 34.3246C19.5812 33.2317 18.6941 32.3458 17.5997 32.3458C16.5054 32.3458 15.6183 33.2317 15.6183 34.3246C15.6183 35.4174 16.5054 36.3033 17.5997 36.3033Z" fill="#00DDC1"/>
<path d="M22.5248 17.9478C23.6191 17.9478 24.5062 17.0618 24.5062 15.969C24.5062 14.8761 23.6191 13.9902 22.5248 13.9902C21.4305 13.9902 20.5433 14.8761 20.5433 15.969C20.5433 17.0618 21.4305 17.9478 22.5248 17.9478Z" fill="#00DDC1"/>
<path d="M35.9801 17.9478C37.0744 17.9478 37.9616 17.0618 37.9616 15.969C37.9616 14.8761 37.0744 13.9902 35.9801 13.9902C34.8858 13.9902 33.9987 14.8761 33.9987 15.969C33.9987 17.0618 34.8858 17.9478 35.9801 17.9478Z" fill="#00BAA0"/>
<path d="M22.5248 41.2218C23.6191 41.2218 24.5062 40.3358 24.5062 39.243C24.5062 38.1502 23.6191 37.2642 22.5248 37.2642C21.4305 37.2642 20.5433 38.1502 20.5433 39.243C20.5433 40.3358 21.4305 41.2218 22.5248 41.2218Z" fill="#00DDC1"/>
<path d="M17.5997 22.8661C18.6941 22.8661 19.5812 21.9802 19.5812 20.8873C19.5812 19.7945 18.6941 18.9086 17.5997 18.9086C16.5054 18.9086 15.6183 19.7945 15.6183 20.8873C15.6183 21.9802 16.5054 22.8661 17.5997 22.8661Z" fill="#00DDC1"/>
<path d="M40.9052 36.3033C41.9995 36.3033 42.8866 35.4174 42.8866 34.3246C42.8866 33.2317 41.9995 32.3458 40.9052 32.3458C39.8108 32.3458 38.9237 33.2317 38.9237 34.3246C38.9237 35.4174 39.8108 36.3033 40.9052 36.3033Z" fill="#00BAA0"/>
<path d="M31.234 14.1687C31.234 15.2615 30.3468 16.1475 29.2526 16.1475V12.1899C30.3468 12.1899 31.234 13.0757 31.234 14.1687Z" fill="#00BAA0"/>
<path d="M31.234 41.0433C31.234 42.1361 30.3468 43.022 29.2526 43.022V39.0643C30.3468 39.0645 31.234 39.9503 31.234 41.0433Z" fill="#00BAA0"/>
<path d="M38.6044 27.6059C38.6044 32.7638 34.4174 36.9451 29.2526 36.9451V18.2668C34.4174 18.2668 38.6044 22.448 38.6044 27.6059Z" fill="#005FE0"/>
<path d="M25.4915 24.5389C26.2829 24.5389 26.9245 23.8983 26.9245 23.1079C26.9245 22.3176 26.2829 21.6769 25.4915 21.6769C24.7001 21.6769 24.0586 22.3176 24.0586 23.1079C24.0586 23.8983 24.7001 24.5389 25.4915 24.5389Z" fill="#00DDC1"/>
<path d="M32.8476 31.9096C33.9247 31.9096 34.7979 31.0376 34.7979 29.9619C34.7979 28.8862 33.9247 28.0142 32.8476 28.0142C31.7704 28.0142 30.8972 28.8862 30.8972 29.9619C30.8972 31.0376 31.7704 31.9096 32.8476 31.9096Z" fill="#00BAA0"/>
<path d="M33.3651 25.9699C34.1565 25.9699 34.798 25.3293 34.798 24.5389C34.798 23.7486 34.1565 23.1079 33.3651 23.1079C32.5737 23.1079 31.9321 23.7486 31.9321 24.5389C31.9321 25.3293 32.5737 25.9699 33.3651 25.9699Z" fill="#00BAA0"/>
<path d="M25.4915 33.7765C26.2829 33.7765 26.9245 33.1358 26.9245 32.3455C26.9245 31.5552 26.2829 30.9145 25.4915 30.9145C24.7001 30.9145 24.0586 31.5552 24.0586 32.3455C24.0586 33.1358 24.7001 33.7765 25.4915 33.7765Z" fill="#00DDC1"/>
<path d="M27.3586 28.2788C27.8842 28.2788 28.3103 27.8533 28.3103 27.3284C28.3103 26.8035 27.8842 26.378 27.3586 26.378C26.833 26.378 26.4069 26.8035 26.4069 27.3284C26.4069 27.8533 26.833 28.2788 27.3586 28.2788Z" fill="#00DDC1"/>
<path d="M55.5673 36.3452L64.1547 31.1917L65.3425 33.1657L56.7551 38.3192L55.5673 36.3452Z" fill="#00BAA0"/>
<path d="M56.4109 31.1832H52.615L49.0583 37.3352L52.615 43.4871H56.1717L63.285 37.3352L56.4109 31.1832Z" fill="#00DDC1"/>
<path d="M55.0184 27.3284H57.3249V47.3419H55.0184V27.3284Z" fill="#00DDC1"/>
<path d="M56.1717 28.8021C56.9867 28.8021 57.6473 28.1423 57.6473 27.3284C57.6473 26.5145 56.9867 25.8548 56.1717 25.8548C55.3567 25.8548 54.696 26.5145 54.696 27.3284C54.696 28.1423 55.3567 28.8021 56.1717 28.8021Z" fill="#005FE0"/>
<path d="M46.9165 33.3304L48.0698 31.3356L56.7473 36.339L55.5941 38.3338L46.9165 33.3304Z" fill="#00DDC1"/>
<path d="M47.4938 33.8054C48.3088 33.8054 48.9695 33.1457 48.9695 32.3318C48.9695 31.5179 48.3088 30.8582 47.4938 30.8582C46.6789 30.8582 46.0182 31.5179 46.0182 32.3318C46.0182 33.1457 46.6789 33.8054 47.4938 33.8054Z" fill="#7A3EB4"/>
<path d="M55.5946 38.3349L56.7479 36.3402L65.4254 41.3435L64.2722 43.3383L55.5946 38.3349Z" fill="#00BAA0"/>
<path d="M46.9795 41.4971L55.5669 36.3436L56.7547 38.3176L48.1673 43.4711L46.9795 41.4971Z" fill="#00DDC1"/>
<path d="M59.7283 31.1832H56.1716V43.4871H59.7283L63.2849 37.3352L59.7283 31.1832Z" fill="#00BAA0"/>
<path d="M56.1716 27.3284H57.3248V47.3419H56.1716V27.3284Z" fill="#00BAA0"/>
<path d="M64.7607 33.655C65.5756 33.655 66.2363 32.9952 66.2363 32.1813C66.2363 31.3675 65.5756 30.7077 64.7607 30.7077C63.9457 30.7077 63.285 31.3675 63.285 32.1813C63.285 32.9952 63.9457 33.655 64.7607 33.655Z" fill="#613393"/>
<path d="M47.5816 43.9625C48.3966 43.9625 49.0572 43.3028 49.0572 42.4889C49.0572 41.675 48.3966 41.0152 47.5816 41.0152C46.7666 41.0152 46.106 41.675 46.106 42.4889C46.106 43.3028 46.7666 43.9625 47.5816 43.9625Z" fill="#7A3EB4"/>
<path d="M56.1717 28.8021C56.9867 28.8021 57.6473 28.1423 57.6473 27.3284C57.6473 26.5145 56.9867 25.8548 56.1717 25.8548C55.3567 25.8548 54.696 26.5145 54.696 27.3284C54.696 28.1423 55.3567 28.8021 56.1717 28.8021Z" fill="#7A3EB4"/>
<path d="M57.6473 27.3284C57.6473 28.1423 56.9866 28.8021 56.1716 28.8021V25.8548C56.9866 25.8548 57.6473 26.5146 57.6473 27.3284Z" fill="#613393"/>
<path d="M56.1717 48.8156C56.9867 48.8156 57.6473 48.1558 57.6473 47.342C57.6473 46.5281 56.9867 45.8683 56.1717 45.8683C55.3567 45.8683 54.696 46.5281 54.696 47.342C54.696 48.1558 55.3567 48.8156 56.1717 48.8156Z" fill="#7A3EB4"/>
<path d="M57.6473 47.342C57.6473 48.1558 56.9866 48.8156 56.1716 48.8156V45.8683C56.9866 45.8683 57.6473 46.5281 57.6473 47.342Z" fill="#613393"/>
<path d="M64.8495 43.8121C65.6645 43.8121 66.3252 43.1523 66.3252 42.3384C66.3252 41.5245 65.6645 40.8648 64.8495 40.8648C64.0346 40.8648 63.3739 41.5245 63.3739 42.3384C63.3739 43.1523 64.0346 43.8121 64.8495 43.8121Z" fill="#613393"/>
<path d="M46.6472 55.9433V53.7753H43.1809C43.0533 53.099 42.7975 52.4683 42.4396 51.9085L44.8673 49.4842L43.3323 47.9511L40.925 50.3551C40.3624 49.9759 39.7231 49.7013 39.0352 49.559V46.1737H36.8643V49.559C36.1766 49.7013 35.5373 49.9759 34.9745 50.3551L32.5675 47.9511L31.0326 49.4842L33.4602 51.9085C33.1023 52.4683 32.8466 53.099 32.7189 53.7753H29.2526V55.9433H32.758C32.9055 56.5942 33.171 57.2005 33.5334 57.7366L31.0324 60.2343L32.5674 61.7673L35.089 59.2491C35.6236 59.5901 36.2224 59.8393 36.8643 59.9719V63.5447H39.0352V59.9719C39.6771 59.8391 40.2759 59.5899 40.8106 59.2491L43.3321 61.7673L44.8671 60.2343L42.3661 57.7366C42.7285 57.2004 42.9941 56.5942 43.1415 55.9433H46.6472Z" fill="#7A3EB4"/>
<path d="M42.4398 51.9085L44.8674 49.4842L43.3323 47.9511L40.9251 50.3551C40.3624 49.9759 39.7231 49.7013 39.0353 49.559V46.1737H37.95V63.5449H39.0354V59.9721C39.6773 59.8393 40.2761 59.5901 40.8108 59.2493L43.3323 61.7675L44.8673 60.2344L42.3663 57.7368C42.7287 57.2006 42.9942 56.5944 43.1417 55.9434H46.6471V53.7754H43.1808C43.0534 53.099 42.7977 52.4683 42.4398 51.9085Z" fill="#613393"/>
<path d="M35.4314 55.1664C36.2228 55.1664 36.8643 54.5257 36.8643 53.7354C36.8643 52.9451 36.2228 52.3044 35.4314 52.3044C34.64 52.3044 33.9984 52.9451 33.9984 53.7354C33.9984 54.5257 34.64 55.1664 35.4314 55.1664Z" fill="#00DDC1"/>
<path d="M39.2488 52.9873C39.7745 52.9873 40.2006 52.5618 40.2006 52.0369C40.2006 51.512 39.7745 51.0865 39.2488 51.0865C38.7232 51.0865 38.2971 51.512 38.2971 52.0369C38.2971 52.5618 38.7232 52.9873 39.2488 52.9873Z" fill="#00BAA0"/>
<path d="M40.2005 57.4481C40.9163 57.4481 41.4966 56.8686 41.4966 56.1537C41.4966 55.4388 40.9163 54.8593 40.2005 54.8593C39.4846 54.8593 38.9043 55.4388 38.9043 56.1537C38.9043 56.8686 39.4846 57.4481 40.2005 57.4481Z" fill="#00BAA0"/>
</g>
<defs>
<clipPath id="clip0">
<rect width="74.1" height="74" fill="white" transform="translate(0.899902)"/>
</clipPath>
</defs>
</svg>
