<svg width="189" height="146" viewBox="0 0 189 146" fill="none" xmlns="http://www.w3.org/2000/svg">
<path d="M183.573 79.4082C193.147 71.1375 190.189 54.408 173.606 54.408L129.972 54.4334C131.629 46.4154 134.029 33.1239 133.934 31.869C133.018 19.9837 124.287 5.51872 123.909 4.92667C122.316 2.35338 114.276 -1.13546 106.185 0.359458C95.7239 2.30264 94.6553 8.09306 94.698 9.68947C94.698 9.68947 95.1488 25.5299 95.1926 29.7567C90.1912 39.2886 72.9461 64.3385 67.7192 66.269C66.4692 65.6125 65.051 65.2594 63.5755 65.2594H8.4483C3.76604 65.2594 0 68.5452 0 72.5891L0.00731033 138.701C0.335057 142.265 3.82452 145.06 7.94633 145.06H57.4616C61.8527 145.06 65.4226 141.962 65.4226 138.152V135.957C65.4226 135.957 67.2623 135.838 68.0981 136.304C71.2818 138.058 75.216 140.265 80.3478 140.265H154.239C181.865 140.265 178.9 118.988 176.376 116.085C181.044 111.676 183.93 103.898 179.99 97.7532C183.014 94.9716 188.336 87.3258 183.573 79.4082ZM55.7607 138.139H7.93171V72.1599H55.7607V138.139ZM170.684 78.8405L170.233 80.4739C182.963 83.6149 176.187 96.346 167.056 97.1717L166.605 98.8051C178.811 101.499 172.988 114.607 163.427 115.503L162.976 117.13C172.944 118.55 170.53 133.311 155.43 133.311L80.2723 133.336C74.965 133.336 70.1304 128.088 66.2267 128.088H62.8201V77.3012C67.0662 75.0176 72.2857 72.0531 75.1867 69.9143C80.6682 65.8578 103.104 34.399 103.104 30.4618C103.104 26.5247 102.609 9.49283 102.609 9.49283C102.609 9.49283 107.007 4.5725 116.829 8.16178C116.829 8.16178 125.094 21.6107 125.937 32.3289C125.937 32.3289 122.215 54.408 120.216 61.3349H172.32C185.122 61.3476 182.679 77.2071 170.684 78.8405Z" fill="white"/>
</svg>
